<svg width="16" height="16" viewBox="0 0 16 16" fill="none" xmlns="http://www.w3.org/2000/svg">
<path d="M8 14C8 14 4 11.1 4 7.33333C4 6.27247 4.42143 5.25505 5.17157 4.50491C5.92172 3.75476 6.93913 3.33333 8 3.33333C9.06087 3.33333 10.0783 3.75476 10.8284 4.50491C11.5786 5.25505 12 6.27247 12 7.33333C12 11.1 8 14 8 14Z" stroke="#1B4332" stroke-width="1.33333" stroke-linecap="round" stroke-linejoin="round"/>
<path d="M8.00004 9C8.92052 9 9.66671 8.25381 9.66671 7.33333C9.66671 6.41286 8.92052 5.66667 8.00004 5.66667C7.07957 5.66667 6.33337 6.41286 6.33337 7.33333C6.33337 8.25381 7.07957 9 8.00004 9Z" stroke="#1B4332" stroke-width="1.33333"/>
</svg>
