<svg width="14" height="16" viewBox="0 0 14 16" fill="none" xmlns="http://www.w3.org/2000/svg">
<path d="M6.75 6C6.9625 6 7.14062 5.92813 7.28438 5.78438C7.42813 5.64062 7.5 5.4625 7.5 5.25C7.5 5.0375 7.42813 4.85938 7.28438 4.71562C7.14062 4.57187 6.9625 4.5 6.75 4.5C6.5375 4.5 6.35938 4.57187 6.21562 4.71562C6.07187 4.85938 6 5.0375 6 5.25C6 5.4625 6.07187 5.64062 6.21562 5.78438C6.35938 5.92813 6.5375 6 6.75 6ZM6.75 10.5C6.2625 10.5 5.82188 10.3656 5.42812 10.0969C5.03437 9.82812 4.75 9.475 4.575 9.0375C4.5125 9.0375 4.45625 9.04062 4.40625 9.04688C4.35625 9.05313 4.3 9.05625 4.2375 9.05625C3.5875 9.05625 3.03125 8.825 2.56875 8.3625C2.10625 7.9 1.875 7.34375 1.875 6.69375C1.875 6.43125 1.91875 6.17812 2.00625 5.93437C2.09375 5.69062 2.225 5.4625 2.4 5.25C2.2375 5.0375 2.1125 4.80938 2.025 4.56563C1.9375 4.32188 1.89375 4.06875 1.89375 3.80625C1.89375 3.15625 2.12188 2.6 2.57812 2.1375C3.03437 1.675 3.5875 1.44375 4.2375 1.44375C4.3 1.44375 4.35625 1.44687 4.40625 1.45312C4.45625 1.45938 4.5125 1.4625 4.575 1.4625C4.75 1.025 5.03437 0.671875 5.42812 0.403125C5.82188 0.134375 6.2625 0 6.75 0C7.2375 0 7.67812 0.134375 8.07187 0.403125C8.46562 0.671875 8.75 1.025 8.925 1.4625C8.9875 1.4625 9.04375 1.45938 9.09375 1.45312C9.14375 1.44687 9.2 1.44375 9.2625 1.44375C9.9125 1.44375 10.4656 1.675 10.9219 2.1375C11.3781 2.6 11.6062 3.15625 11.6062 3.80625C11.6062 4.06875 11.5656 4.32188 11.4844 4.56563C11.4031 4.80938 11.275 5.0375 11.1 5.25C11.2625 5.4625 11.3875 5.69062 11.475 5.93437C11.5625 6.17812 11.6062 6.43125 11.6062 6.69375C11.6062 7.34375 11.3781 7.9 10.9219 8.3625C10.4656 8.825 9.9125 9.05625 9.2625 9.05625C9.2 9.05625 9.14375 9.05313 9.09375 9.04688C9.04375 9.04062 8.9875 9.0375 8.925 9.0375C8.75 9.475 8.46562 9.82812 8.07187 10.0969C7.67812 10.3656 7.2375 10.5 6.75 10.5ZM6.75 15.75C6.75 14.825 6.92813 13.9531 7.28438 13.1344C7.64062 12.3156 8.125 11.6 8.7375 10.9875C9.35 10.375 10.0656 9.89062 10.8844 9.53438C11.7031 9.17813 12.575 9 13.5 9C13.5 9.925 13.3219 10.7969 12.9656 11.6156C12.6094 12.4344 12.125 13.15 11.5125 13.7625C10.9 14.375 10.1844 14.8594 9.36563 15.2156C8.54688 15.5719 7.675 15.75 6.75 15.75ZM8.5875 13.9125C9.3 13.65 9.925 13.25 10.4625 12.7125C11 12.175 11.4 11.55 11.6625 10.8375C10.95 11.1 10.325 11.5 9.7875 12.0375C9.25 12.575 8.85 13.2 8.5875 13.9125ZM6.75 15.75C6.75 14.825 6.57187 13.9531 6.21562 13.1344C5.85938 12.3156 5.375 11.6 4.7625 10.9875C4.15 10.375 3.43437 9.89062 2.61562 9.53438C1.79687 9.17813 0.925 9 0 9C0 9.925 0.178125 10.7969 0.534375 11.6156C0.890625 12.4344 1.375 13.15 1.9875 13.7625C2.6 14.375 3.31563 14.8594 4.13438 15.2156C4.95312 15.5719 5.825 15.75 6.75 15.75ZM4.9125 13.9125C4.2 13.65 3.575 13.25 3.0375 12.7125C2.5 12.175 2.1 11.55 1.8375 10.8375C2.55 11.1 3.175 11.5 3.7125 12.0375C4.25 12.575 4.65 13.2 4.9125 13.9125ZM9.2625 7.55625C9.5 7.55625 9.70312 7.47187 9.87187 7.30312C10.0406 7.13438 10.125 6.93125 10.125 6.69375C10.125 6.51875 10.0781 6.36562 9.98438 6.23438C9.89062 6.10313 9.76875 6 9.61875 5.925L8.9625 5.60625C8.9375 5.74375 8.9 5.87813 8.85 6.00938C8.8 6.14062 8.74375 6.2625 8.68125 6.375C8.61875 6.4875 8.54375 6.59375 8.45625 6.69375C8.36875 6.79375 8.275 6.8875 8.175 6.975L8.775 7.40625C8.8375 7.45625 8.90938 7.49375 8.99063 7.51875C9.07188 7.54375 9.1625 7.55625 9.2625 7.55625ZM8.9625 4.89375L9.61875 4.575C9.76875 4.5 9.8875 4.39375 9.975 4.25625C10.0625 4.11875 10.1062 3.96875 10.1062 3.80625C10.1062 3.56875 10.025 3.36563 9.8625 3.19688C9.7 3.02813 9.5 2.94375 9.2625 2.94375C9.1625 2.94375 9.075 2.95625 9 2.98125C8.925 3.00625 8.85 3.04375 8.775 3.09375L8.15625 3.525C8.25625 3.6125 8.35312 3.70625 8.44687 3.80625C8.54062 3.90625 8.61875 4.0125 8.68125 4.125C8.74375 4.2375 8.8 4.35938 8.85 4.49062C8.9 4.62187 8.9375 4.75625 8.9625 4.89375ZM5.98125 3.15C6.10625 3.1 6.23125 3.0625 6.35625 3.0375C6.48125 3.0125 6.6125 3 6.75 3C6.8875 3 7.01875 3.0125 7.14375 3.0375C7.26875 3.0625 7.39375 3.1 7.51875 3.15L7.6125 2.325C7.6375 2.1 7.55938 1.90625 7.37813 1.74375C7.19688 1.58125 6.9875 1.5 6.75 1.5C6.5125 1.5 6.30312 1.58125 6.12187 1.74375C5.94062 1.90625 5.8625 2.1 5.8875 2.325L5.98125 3.15ZM6.75 9C6.9875 9 7.19688 8.91875 7.37813 8.75625C7.55938 8.59375 7.6375 8.4 7.6125 8.175L7.51875 7.35C7.39375 7.4 7.26875 7.4375 7.14375 7.4625C7.01875 7.4875 6.8875 7.5 6.75 7.5C6.6125 7.5 6.48125 7.4875 6.35625 7.4625C6.23125 7.4375 6.10625 7.4 5.98125 7.35L5.8875 8.175C5.8625 8.4 5.94062 8.59375 6.12187 8.75625C6.30312 8.91875 6.5125 9 6.75 9ZM4.5375 4.89375C4.5625 4.75625 4.6 4.62187 4.65 4.49062C4.7 4.35938 4.75625 4.2375 4.81875 4.125C4.88125 4.0125 4.95625 3.90625 5.04375 3.80625C5.13125 3.70625 5.225 3.6125 5.325 3.525L4.725 3.09375C4.6625 3.04375 4.59063 3.00625 4.50938 2.98125C4.42812 2.95625 4.3375 2.94375 4.2375 2.94375C4 2.94375 3.79688 3.02813 3.62812 3.19688C3.45937 3.36563 3.375 3.56875 3.375 3.80625C3.375 3.96875 3.42188 4.11875 3.51562 4.25625C3.60938 4.39375 3.73125 4.5 3.88125 4.575L4.5375 4.89375ZM4.2375 7.5375C4.3375 7.5375 4.425 7.52813 4.5 7.50938C4.575 7.49062 4.65 7.45 4.725 7.3875L5.34375 6.975C5.24375 6.8875 5.14687 6.79375 5.05312 6.69375C4.95937 6.59375 4.88125 6.4875 4.81875 6.375C4.75625 6.2625 4.7 6.14062 4.65 6.00938C4.6 5.87813 4.5625 5.74375 4.5375 5.60625L3.88125 5.925C3.73125 6 3.6125 6.10625 3.525 6.24375C3.4375 6.38125 3.39375 6.53125 3.39375 6.69375C3.40625 6.93125 3.49062 7.13125 3.64687 7.29375C3.80312 7.45625 4 7.5375 4.2375 7.5375Z" fill="#012D1D"/>
</svg>
