<svg width="72" height="80" viewBox="0 0 72 80" fill="none" xmlns="http://www.w3.org/2000/svg">
<path opacity="0.1" d="M22.2 72H49.8L53.8 56H18.2L22.2 72ZM22.2 80C20.3333 80 18.7 79.4333 17.3 78.3C15.9 77.1667 14.9667 75.7 14.5 73.9L10 56H62L57.5 73.9C57.0333 75.7 56.1 77.1667 54.7 78.3C53.3 79.4333 51.6667 80 49.8 80H22.2ZM8 48H64V40H8V48ZM36 24C36 17.3333 38.3333 11.6667 43 7C47.6667 2.33333 53.3333 0 60 0C60 6 58.1 11.2 54.3 15.6C50.5 20 45.7333 22.6667 40 23.6V32H72V48C72 50.2 71.2167 52.0833 69.65 53.65C68.0833 55.2167 66.2 56 64 56H8C5.8 56 3.91667 55.2167 2.35 53.65C0.783333 52.0833 0 50.2 0 48V32H32V23.6C26.2667 22.6667 21.5 20 17.7 15.6C13.9 11.2 12 6 12 0C18.6667 0 24.3333 2.33333 29 7C33.6667 11.6667 36 17.3333 36 24Z" fill="#012D1D"/>
</svg>
