<svg width="15" height="12" viewBox="0 0 15 12" fill="none" xmlns="http://www.w3.org/2000/svg">
<path d="M0 12V10.5H4.3125C4.0375 9.4375 3.51562 8.52188 2.74688 7.75313C1.97813 6.98438 1.0625 6.4625 0 6.1875C0.25 6.125 0.496875 6.07812 0.740625 6.04688C0.984375 6.01562 1.2375 6 1.5 6C3.175 6 4.59375 6.58125 5.75625 7.74375C6.91875 8.90625 7.5 10.325 7.5 12H0ZM9 12C9 11.475 8.94375 10.9531 8.83125 10.4344C8.71875 9.91562 8.55625 9.41875 8.34375 8.94375C8.86875 8.05625 9.58438 7.34375 10.4906 6.80625C11.3969 6.26875 12.4 6 13.5 6C13.7625 6 14.0156 6.01562 14.2594 6.04688C14.5031 6.07812 14.75 6.125 15 6.1875C13.9375 6.4625 13.025 6.98438 12.2625 7.75313C11.5 8.52188 10.975 9.4375 10.6875 10.5H15V12H9ZM7.5 7.51875C7.5 6.70625 7.65 5.94375 7.95 5.23125C8.25 4.51875 8.6625 3.89062 9.1875 3.34687C9.7125 2.80312 10.3281 2.36875 11.0344 2.04375C11.7406 1.71875 12.4937 1.54375 13.2937 1.51875C12.5938 1.95625 11.9812 2.49375 11.4563 3.13125C10.9313 3.76875 10.525 4.48125 10.2375 5.26875C9.6875 5.53125 9.18437 5.85313 8.72812 6.23438C8.27187 6.61562 7.8625 7.04375 7.5 7.51875ZM6.13125 6.1125C5.98125 6 5.83125 5.89375 5.68125 5.79375C5.53125 5.69375 5.375 5.59375 5.2125 5.49375C5.2125 5.41875 5.21875 5.34063 5.23125 5.25938C5.24375 5.17812 5.25 5.1 5.25 5.025C5.25 4.075 5.1 3.175 4.8 2.325C4.5 1.475 4.075 0.7 3.525 0C4.35 0.3375 5.06563 0.821875 5.67188 1.45312C6.27812 2.08437 6.74375 2.8125 7.06875 3.6375C6.84375 4.0125 6.65 4.40938 6.4875 4.82812C6.325 5.24687 6.20625 5.675 6.13125 6.1125Z" fill="#012D1D"/>
</svg>
